<svg width="40" height="51" viewBox="0 0 40 51" fill="none" xmlns="http://www.w3.org/2000/svg">
<path d="M28.657 0.295895C26.4312 0.552926 23.2812 2.51621 21.7172 4.61621C20.8148 5.81933 20.2843 6.96777 19.825 8.69589L19.5953 9.55996L19.6062 10.4787C19.6172 10.9818 19.6445 11.4521 19.6718 11.5287C19.7429 11.7092 19.8797 11.7365 20.8422 11.742C21.6406 11.7475 21.6898 11.742 22.3734 11.5396C24.2 11.0092 25.5398 10.2107 26.4914 9.07871C26.7211 8.7998 27.0656 8.42793 27.2461 8.24199C27.8476 7.65136 28.6187 6.33886 29.0453 5.20136C29.4718 4.05839 29.6632 2.99746 29.7179 1.48808L29.7507 0.520113L29.6086 0.377926C29.45 0.219332 29.3625 0.213863 28.657 0.295895Z" fill="#717171"/>
<path d="M27.6884 14.0114C26.6056 14.0661 23.6907 14.8754 21.5962 15.6957C20.3274 16.1934 20.3274 16.1934 20.0759 16.2372C19.6384 16.3082 18.5665 15.9965 16.7235 15.2528C15.7446 14.8645 14.7384 14.5692 13.2509 14.2301C12.6274 14.0934 11.5939 14.077 11.1454 14.2028C10.9649 14.252 10.3962 14.3668 9.88214 14.4543C8.77745 14.6512 8.15401 14.8426 7.32276 15.2528C4.8126 16.4778 3.10089 18.2387 1.74464 20.995C1.14307 22.209 0.700105 23.3957 0.37198 24.659C-0.114739 26.5348 -0.125676 30.1332 0.350105 32.3153C0.404792 32.5832 0.454011 32.9004 0.454011 33.0262C0.454011 33.2887 0.50323 33.4856 0.962605 35.2957C1.38917 36.9692 1.34542 36.8325 2.16026 38.8778C3.30323 41.7489 3.66417 42.3832 5.99932 45.6043C6.95635 46.9223 7.44307 47.5239 8.14854 48.2403C8.88682 48.995 9.48292 49.4325 10.3251 49.8481C11.2767 50.3129 11.6923 50.4168 12.5673 50.4114C13.6884 50.4114 14.5907 50.1817 16.3079 49.4598C17.3907 49.0059 17.4618 48.984 19.4306 48.5793C20.0212 48.4536 20.5681 48.4645 21.3993 48.6012C21.6837 48.645 22.1103 48.7106 22.3399 48.7434C22.8048 48.809 23.2751 48.9622 24.4892 49.4489C25.9548 50.0395 26.9884 50.302 28.0712 50.3676C29.6462 50.4661 31.1665 49.7661 32.7907 48.2075C34.4478 46.6051 35.9954 44.4122 37.5595 41.4536C37.9806 40.6551 38.6532 39.02 38.7681 38.5278C38.8173 38.3309 38.8993 38.0848 38.9595 37.9864C39.0142 37.8879 39.0634 37.7512 39.0634 37.6911C39.0634 37.4942 38.6642 37.1825 37.9587 36.827C36.6298 36.1434 35.3228 34.9731 34.4423 33.6551C33.8134 32.709 33.179 31.2926 33.0204 30.4559C32.7524 29.0778 32.6759 27.5684 32.829 26.5184C32.8673 26.245 33.004 25.6707 33.1353 25.2332C33.6985 23.3356 34.0868 22.5754 34.9673 21.6348C35.2353 21.3559 35.454 21.0989 35.454 21.077C35.454 20.984 36.7939 19.8629 37.122 19.6825C37.3024 19.5786 37.5321 19.42 37.6306 19.3215C37.9314 19.0262 37.8876 18.9114 37.1329 18.0254C36.1212 16.8387 34.847 15.8653 33.3485 15.1379C32.4134 14.684 31.7681 14.4598 30.8657 14.2739C29.9415 14.077 28.5634 13.9622 27.6884 14.0114Z" fill="#717171"/>
</svg>
